<?xml version="1.0" encoding="UTF-8"?>
<svg width="800" height="400" xmlns="http://www.w3.org/2000/svg">
    <style>
        .title { font: bold 16px sans-serif; text-anchor: middle; }
        .label { font: 12px sans-serif; text-anchor: middle; }
        .bar { fill: #3498db; }
        .bar:hover { fill: #2980b9; }
    </style>
    
    <!-- 标题 -->
    <text x="400.0" y="30" class="title">题目长度分布</text>
    
    <!-- 条形图 -->

    <rect x="65.0" y="271.8181818181818" width="87.14285714285714" height="68.18181818181819" class="bar"/>
    <text x="108.57142857142857" y="355" class="label"><500</text>
    <text x="108.57142857142857" y="266.8181818181818" class="label">300</text>

    <rect x="162.14285714285714" y="100.0" width="87.14285714285714" height="240.0" class="bar"/>
    <text x="205.71428571428572" y="355" class="label">500-1K</text>
    <text x="205.71428571428572" y="95.0" class="label">1056</text>

    <rect x="259.2857142857143" y="253.4090909090909" width="87.14285714285714" height="86.5909090909091" class="bar"/>
    <text x="302.85714285714283" y="355" class="label">1K-1.5K</text>
    <text x="302.85714285714283" y="248.4090909090909" class="label">381</text>

    <rect x="356.42857142857144" y="312.04545454545456" width="87.14285714285714" height="27.954545454545453" class="bar"/>
    <text x="400.0" y="355" class="label">1.5K-2K</text>
    <text x="400.0" y="307.04545454545456" class="label">123</text>

    <rect x="453.57142857142856" y="319.09090909090907" width="87.14285714285714" height="20.90909090909091" class="bar"/>
    <text x="497.1428571428571" y="355" class="label">2K-3K</text>
    <text x="497.1428571428571" y="314.09090909090907" class="label">92</text>

    <rect x="550.7142857142857" y="332.72727272727275" width="87.14285714285714" height="7.272727272727273" class="bar"/>
    <text x="594.2857142857142" y="355" class="label">3K-5K</text>
    <text x="594.2857142857142" y="327.72727272727275" class="label">32</text>

    <rect x="647.8571428571429" y="338.8636363636364" width="87.14285714285714" height="1.1363636363636365" class="bar"/>
    <text x="691.4285714285714" y="355" class="label">>5K</text>
    <text x="691.4285714285714" y="333.8636363636364" class="label">5</text>
</svg>