<?xml version="1.0" encoding="UTF-8"?>
<svg width="800" height="400" xmlns="http://www.w3.org/2000/svg">
    <style>
        .title { font: bold 16px sans-serif; text-anchor: middle; }
        .label { font: 12px sans-serif; text-anchor: middle; }
        .bar { fill: #3498db; }
        .bar:hover { fill: #2980b9; }
    </style>
    
    <!-- 标题 -->
    <text x="400.0" y="30" class="title">题目标签分布 (Top 10)</text>
    
    <!-- 条形图 -->

    <rect x="65.0" y="100.0" width="75.0" height="240.0" class="bar"/>
    <text x="102.5" y="355" class="label">字符串</text>
    <text x="102.5" y="95.0" class="label">192</text>

    <rect x="150.0" y="253.75" width="75.0" height="86.25" class="bar"/>
    <text x="187.5" y="355" class="label">数学</text>
    <text x="187.5" y="248.75" class="label">69</text>

    <rect x="235.0" y="262.5" width="75.0" height="77.5" class="bar"/>
    <text x="272.5" y="355" class="label">排序</text>
    <text x="272.5" y="257.5" class="label">62</text>

    <rect x="320.0" y="293.75" width="75.0" height="46.25" class="bar"/>
    <text x="357.5" y="355" class="label">图论</text>
    <text x="357.5" y="288.75" class="label">37</text>

    <rect x="405.0" y="313.75" width="75.0" height="26.25" class="bar"/>
    <text x="442.5" y="355" class="label">模拟</text>
    <text x="442.5" y="308.75" class="label">21</text>

    <rect x="490.0" y="328.75" width="75.0" height="11.25" class="bar"/>
    <text x="527.5" y="355" class="label">搜索</text>
    <text x="527.5" y="323.75" class="label">9</text>

    <rect x="575.0" y="336.25" width="75.0" height="3.75" class="bar"/>
    <text x="612.5" y="355" class="label">动态规划</text>
    <text x="612.5" y="331.25" class="label">3</text>

    <rect x="660.0" y="337.5" width="75.0" height="2.5" class="bar"/>
    <text x="697.5" y="355" class="label">贪心</text>
    <text x="697.5" y="332.5" class="label">2</text>
</svg>